REM MD5 180ad947eb68e144e8e77857697ce661
FILE "Hi-Octane - The Track Fights Back! (USA) (En,Fr,De,Es).bin" BINARY
  TRACK 01 MODE2/2352
    INDEX 01 00:00:00
  TRACK 02 AUDIO
    INDEX 00 01:13:74
    INDEX 01 01:15:74
  TRACK 03 AUDIO
    INDEX 00 11:24:66
    INDEX 01 11:26:66
  TRACK 04 AUDIO
    INDEX 00 22:30:10
    INDEX 01 22:32:10
REM LEADOUT 32:25:29
